Coordinates
nRows=8
nColumns=38

# SIMM Motion File Header:
name Coordinates
datacolumns 38
datarows 8
otherdata 1
range 1.60400000000000010000 1.61100000000000000000

Units are S.I. units (second, meters, Newtons, ...)
Angles are in degrees.

endheader
time	pelvis_tilt	pelvis_list	pelvis_rotation	pelvis_tx	pelvis_ty	pelvis_tz	hip_flexion_r	hip_adduction_r	hip_rotation_r	knee_angle_r	ankle_angle_r	subtalar_angle_r	mtp_angle_r	hip_flexion_l	hip_adduction_l	hip_rotation_l	knee_angle_l	ankle_angle_l	subtalar_angle_l	mtp_angle_l	lumbar_extension	lumbar_bending	lumbar_rotation	arm_flex_r	arm_add_r	arm_rot_r	elbow_flex_r	pro_sup_r	wrist_flex_r	wrist_dev_r	arm_flex_l	arm_add_l	arm_rot_l	elbow_flex_l	pro_sup_l	wrist_flex_l	wrist_dev_l
      1.60400000000000010000	     -7.26670332395545770000	     -3.17875039104245080000	     -1.25392005498861050000	      0.75668696058436535000	      1.01994902523695610000	     -0.34067382078847758000	     33.20504978612862600000	      5.57470102057797320000	     -8.30667477102022110000	    -10.47509684020687200000	    -15.62919476674329300000	      0.00000000000000000000	      0.00000000000000000000	    -12.94351949910070600000	     -4.86830295366807770000	    -11.41211081375105800000	    -72.46742538931513900000	    -19.54848732855594700000	      0.00000000000000000000	      0.00000000000000000000	     -2.36382220312125480000	      5.80197449759170780000	    -18.25183340633932600000	    -30.39107690410201100000	    -25.59039507088407800000	      2.03992182065122220000	     61.13726969829695400000	     74.31637712890803000000	      0.00000000000000000000	      0.00000000000000000000	      0.31626685245088137000	    -35.66488428327102900000	     25.20647710070969100000	    105.22792052695196000000	     79.15723659203808900000	      0.00000000000000000000	      0.00000000000000000000
      1.60500000000000000000	     -7.25507454695280440000	     -3.13943466345321240000	     -1.31471682591806530000	      0.75667336495238402000	      1.01938590609511510000	     -0.34061920624353509000	     33.13233681672926400000	      5.57164114622059610000	     -8.34455211136130260000	    -10.54313783808362900000	    -15.70642673910214500000	      0.00000000000000000241	     -0.00000000000000000303	    -12.76910777614453500000	     -4.84438358839007850000	    -11.40849541309036000000	    -73.15534205910552100000	    -19.39254518481947900000	      0.00000000000000000056	     -0.00000000000000000047	     -2.37395944531935800000	      5.80477251746474550000	    -18.10493595008616200000	    -30.27142746986770000000	    -25.57885072655357900000	      2.04116937341217630000	     61.09354517398185200000	     74.36624259867868100000	     -0.00000000000000000178	     -0.00000000000000000058	      0.15681444570389677000	    -35.59334878778134500000	     25.26693498475858100000	    104.83432320693626000000	     79.21128251746695500000	     -0.00000000000000000080	      0.00000000000000000066
      1.60600000000000010000	     -7.24338164195318870000	     -3.10256381500670650000	     -1.37565020967569930000	      0.75665645519456903000	      1.01881534370506150000	     -0.34056290497431541000	     33.06226852908889000000	      5.57135114344201910000	     -8.37534183480924100000	    -10.62733970188137400000	    -15.77626408110081600000	      0.00000000000000000750	     -0.00000000000000001384	    -12.59145687531781000000	     -4.82285550867888360000	    -11.40492842584526700000	    -73.84421515080541100000	    -19.23763438641731600000	      0.00000000000000000110	      0.00000000000000000038	     -2.38459084559256950000	      5.81023997738977990000	    -17.95735943531341100000	    -30.14879987263578800000	    -25.56891393243006800000	      2.04653974611460840000	     61.04915127535922200000	     74.41439847814091000000	     -0.00000000000000000404	     -0.00000000000000000242	     -0.00244728508542600180	    -35.52093958779391900000	     25.32652970605303000000	    104.43684660530134000000	     79.26617215645697500000	     -0.00000000000000000180	      0.00000000000000000248
      1.60700000000000000000	     -7.23154761541009530000	     -3.06820756498194090000	     -1.43671313173519380000	      0.75663628165400221000	      1.01823755708937490000	     -0.34050494057371633000	     32.99460687452539500000	      5.57388219723488200000	     -8.39940268230309430000	    -10.72729920127317100000	    -15.84112023171131900000	      0.00000000000000000694	     -0.00000000000000002436	    -12.41065670644774600000	     -4.80384580115865580000	    -11.40152159223410100000	    -74.53399835362743900000	    -19.08381194981496200000	     -0.00000000000000000031	      0.00000000000000000452	     -2.39581578774608370000	      5.81845602402671160000	    -17.80907184652642900000	    -30.02325420443662600000	    -25.56059201258467400000	      2.05593732882056420000	     61.00419989203216200000	     74.46076411231135200000	     -0.00000000000000000531	     -0.00000000000000000419	     -0.16138972033504834000	    -35.44765618811198500000	     25.38540220405031500000	    104.03549711481020000000	     79.32166823751498400000	     -0.00000000000000000163	      0.00000000000000000494
      1.60800000000000010000	     -7.21943758445061070000	     -3.03640004217137790000	     -1.49783795822617920000	      0.75661300477414173000	      1.01765275876979320000	     -0.34044535262941783000	     32.92898947737504800000	      5.57930263589369880000	     -8.41641804098204100000	    -10.84255402497423200000	    -15.89982983620900300000	      0.00000000000000000969	     -0.00000000000000003398	    -12.22686346095415800000	     -4.78747102809051660000	    -11.39834270168582000000	    -75.22463345494071500000	    -18.93112896302562500000	     -0.00000000000000000323	      0.00000000000000001021	     -2.40778169318360600000	      5.82944850942350090000	    -17.66009013247939300000	    -29.89488672365688500000	    -25.55386905453233800000	      2.06923135500460380000	     60.95885371578327000000	     74.50526088080719900000	     -0.00000000000000000743	     -0.00000000000000000531	     -0.31988163102668732000	    -35.37354687139690400000	     25.44372307346992900000	    103.63032845338230000000	     79.37747545244845100000	     -0.00000000000000000098	      0.00000000000000000537
      1.60900000000000000000	     -7.20692325049485220000	     -3.00717158589662810000	     -1.55898328491744140000	      0.75658675596130076000	      1.01706116134163870000	     -0.34038416235881197000	     32.86508297802205900000	      5.58767712344109310000	     -8.42620433224475110000	    -10.97266850035187800000	    -15.95171865930421800000	      0.00000000000000001640	     -0.00000000000000004067	    -12.04023203737494900000	     -4.77383619840730060000	    -11.39547627227310200000	    -75.91605769585756000000	    -18.77963004208815800000	     -0.00000000000000000309	      0.00000000000000001733	     -2.42063518660430300000	      5.84324417180523970000	    -17.51040179986744100000	    -29.76379013186814500000	    -25.54873150005951400000	      2.08628260373912780000	     60.91327996407871100000	     74.54781978617978700000	     -0.00000000000000000890	     -0.00000000000000000500	     -0.47779302122916850000	    -35.29865710613246700000	     25.50165970423736500000	    103.22139110453487000000	     79.43331633948071200000	      0.00000000000000000038	      0.00000000000000000696
      1.61000000000000010000	     -7.19387394975475840000	     -2.98054875761200360000	     -1.62007742250412190000	      0.75655765319439894000	      1.01646297748009820000	     -0.34032144624905925000	     32.80255789202529800000	      5.59904998541144310000	     -8.42862696360888820000	    -11.11721704462256200000	    -15.99596334667688800000	      0.00000000000000001605	     -0.00000000000000004844	    -11.85090939078376400000	     -4.76304687546870390000	    -11.39296613869444200000	    -76.60821837572955000000	    -18.62935168940785100000	     -0.00000000000000000195	      0.00000000000000002635	     -2.43452521989814930000	      5.85986664433002690000	    -17.36002119240575300000	    -29.63005452532311400000	    -25.54516212665932100000	      2.10694395326145180000	     60.86764911298912000000	     74.58838482476414800000	     -0.00000000000000000898	     -0.00000000000000000645	     -0.63499635367712026000	    -35.22303746430704100000	     25.55937575178405300000	    102.80873718871251000000	     79.48893019758384100000	      0.00000000000000000214	      0.00000000000000000878
      1.61100000000000000000	     -7.18015962025822850000	     -2.95655621468355710000	     -1.68103483317974130000	      0.75652579594370961000	      1.01585841910203170000	     -0.34025731296717776000	     32.74109686260899100000	      5.61345243468692080000	     -8.42362009325639250000	    -11.27579229944428000000	    -16.03172525562268200000	      0.00000000000000001710	     -0.00000000000000005599	    -11.65903634060279600000	     -4.75520738272853280000	    -11.39083172283576900000	    -77.30106899536632200000	    -18.48032328154034000000	     -0.00000000000000000092	      0.00000000000000003587	     -2.44960213249334830000	      5.87933895292385510000	    -17.20897361682482100000	    -29.49376775250317500000	    -25.54314197336222500000	      2.13106096851942880000	     60.82213497629303600000	     74.62691234795438800000	     -0.00000000000000000892	     -0.00000000000000000891	     -0.79136584094080320000	    -35.14674097012680700000	     25.61703012514518500000	    102.39241904611524000000	     79.54407669244747600000	      0.00000000000000000439	      0.00000000000000000986
